<svg width="45" height="36" viewBox="0 0 45 36" fill="none" xmlns="http://www.w3.org/2000/svg">
<path d="M2.31282 35.1743L42.0627 35.0835C42.4652 35.0813 42.8594 34.9652 43.2029 34.7478C43.5465 34.5303 43.8264 34.2197 44.0125 33.8495C44.1986 33.4792 44.2839 33.0632 44.2591 32.6464C44.2343 32.2295 44.1005 31.8276 43.872 31.4838L23.929 1.73754C23.1025 0.504213 21.1194 0.508739 20.2963 1.74583L0.489368 31.5828C0.2601 31.9269 0.12611 32.3297 0.101957 32.7474C0.0778036 33.165 0.164411 33.5816 0.352368 33.9518C0.540326 34.322 0.822446 34.6317 1.16808 34.8472C1.5137 35.0627 1.90963 35.1758 2.31282 35.1743ZM22.1237 7.07209L37.8388 30.5098L6.51585 30.5813L22.1237 7.07209Z" fill="#FFBE0B"/>
</svg>
